{"title":"Arshinagar (2015) - DVDRip - x264 - AC3 - ESub [DDR]","uid":13875930,"size":1634897719,"categoryP":"video","categoryS":"movies","magnet":"?xt=urn:btih:d3165e046f0e5c5c1b3ff1b0ca9c3fe6ffe20c8f&amp;dn=Arshinagar+%282015%29+-+DVDRip+-+x264+-+AC3+-+ESub+%5BDDR%5D&amp;tr=udp%3A%2F%2Ftracker.leechers-paradise.org%3A6969&amp;tr=udp%3A%2F%2Fzer0day.ch%3A1337&amp;tr=udp%3A%2F%2Fopen.demonii.com%3A1337&amp;tr=udp%3A%2F%2Ftracker.coppersurfer.tk%3A6969&amp;tr=udp%3A%2F%2Fexodus.desync.com%3A6969","seeders":1,"leechers":0,"uploader":"SaM","files":12,"time":1458124785,"description":"( A film by Aparna Sen )\r\n\r\n\r\n\r\n\r\nDVD Rip - x264 - ESub - Chapters\r\n\r\nUnouched 5.1 AC3 - MKV - 1.50 GB\r\n\r\n*2015*\r\n\r\n\r\n\r\n! || |= ®\r\n\r\nFormat : Matroska\r\nFormat version : Version 2\r\nFile size : 1.50 GiB\r\nDuration : 2h 31mn\r\nOverall bit rate : 1 419 Kbps\r\nEncoded date : UTC 2016-03-16 05:57:34\r\nWriting application : mkvmerge v8.5.2 ('Crosses') 32bit\r\nWriting library : libebml v1.3.3 + libmatroska v1.4.4\r\n\r\nVideo\r\nID : 1\r\nFormat : AVC\r\nFormat/Info : Advanced Video Codec\r\nFormat profile :   \r\nFormat settings, CABAC : Yes\r\nFormat settings, ReFrames : 6 frames\r\nCodec ID : V_MPEG4/ISO/AVC\r\nDuration : 2h 31mn\r\nBit rate : 968 Kbps\r\nWidth : 720 pixels\r\nHeight : 304 pixels\r\nDisplay aspect ratio : 2.35:1\r\nFrame rate mode : Constant\r\nFrame rate : 23.976 (24000/1001) fps\r\nColor space : YUV\r\nChroma subsampling : 4:2:0\r\nBit depth : 8 bits\r\nScan type : Progressive\r\nBits/(Pixel*Frame) : 0.184\r\nStream size : 1.02 GiB (68%)\r\nTitle : Arshinagar (2015) - DVDRip - x264 - AC3 - ESub [DDR]\r\nLanguage : English\r\nDefault : Yes\r\nForced : No\r\nColor range : Limited\r\nColor primaries : Generic film\r\n\r\nAudio\r\nID : 2\r\nFormat : AC-3\r\nFormat/Info : Audio Coding 3\r\nMode extension : CM (complete main)\r\nFormat settings, Endianness : Big\r\nCodec ID : A_AC3\r\nDuration : 2h 31mn\r\nBit rate mode : Constant\r\nBit rate : 448 Kbps\r\nChannel(s) : 6 channels\r\nChannel positions : Front: L C R, Side: L R, LFE\r\nSampling rate : 48.0 KHz\r\nFrame rate : 31.250 fps (1536 spf)\r\nCompression mode : Lossy\r\nStream size : 485 MiB (32%)\r\nTitle : Untouched 5.1 AC3 [DDR]\r\nLanguage : Bengali\r\nDefault : Yes\r\nForced : No\r\n\r\nText\r\nID : 3\r\nFormat : VobSub\r\nMuxing mode : zlib\r\nCodec ID : S_VOBSUB\r\nCodec ID/Info : Picture based subtitle format used on DVDs\r\nDuration : 2h 26mn\r\nBit rate : 1 607 bps\r\nCount of elements : 1702\r\nStream size : 1.68 MiB (0%)\r\nTitle : Vobsub [DDR]\r\nLanguage : English\r\nDefault : Yes\r\nForced : No\r\n\r\nMenu\r\n00:00:00.000 : en:Chapter 01\r\n00:03:55.500 : en:Chapter 02\r\n00:13:08.000 : en:Chapter 03\r\n00:16:05.000 : en:Chapter 04\r\n00:18:05.500 : en:Chapter 05\r\n00:34:20.000 : en:Chapter 06\r\n00:38:36.000 : en:Chapter 07\r\n00:41:14.500 : en:Chapter 08\r\n00:50:00.000 : en:Chapter 09\r\n00:54:08.000 : en:Chapter 10\r\n00:57:49.500 : en:Chapter 11\r\n00:59:03.500 : en:Chapter 12\r\n01:02:44.000 : en:Chapter 13\r\n01:05:14.000 : en:Chapter 14\r\n01:10:39.000 : en:Chapter 15\r\n01:15:56.500 : en:Chapter 16\r\n01:16:10.500 : en:Chapter 17\r\n01:31:08.500 : en:Chapter 18\r\n01:33:47.000 : en:Chapter 19\r\n01:34:57.000 : en:Chapter 20\r\n01:36:39.000 : en:Chapter 21\r\n01:40:21.500 : en:Chapter 22\r\n01:46:07.000 : en:Chapter 23\r\n02:07:52.500 : en:Chapter 24\r\n02:27:46.000 : en:Chapter 25\r\n02:30:37.000 : en:Chapter 26\r\n02:31:09.367 : en:Chapter 27\r\n \nhttp://extraimago.com/image/asiy \nhttp://extraimago.com/image/asiq \nhttp://extraimago.com/image/asiS \nhttp://extraimago.com/image/asiO \nhttp://extraimago.com/image/asiE \nhttp://extraimago.com/image/asi1 \nhttp://extraimago.com/image/asic \nhttp://extraimago.com/image/asi7\r\n\r\nMake sure it is Genuine DDR release @ ExtraTorrent.com\r\n                     \nhttps://extratorrent.cc/                     \nhttps://extratorrent.com/                     \nhttp://extratorrent.ws/                     \nhttps://etproxy.com/                     \nhttps://extratorrentlive.com/                     \nhttps://extratorrentonline.com/                     \nhttps://etmirror.com/                     \nhttps://extratorrent.works/                     \nhttps://extratorrent.date/\r\n\r\n\r\nShare your Images with:\r\n                     \nhttp://extraimago.com/\r\n\r\nHelp us by donating with Bitcoin: 1XeH1kKXWYbzZcFHokGiZ4d3MWW5WyXzU","torrent":{"xt":"urn:btih:d3165e046f0e5c5c1b3ff1b0ca9c3fe6ffe20c8f","amp;dn":"Arshinagar+%282015%29+-+DVDRip+-+x264+-+AC3+-+ESub+%5BDDR%5D","amp;tr":["udp%3A%2F%2Ftracker.leechers-paradise.org%3A6969","udp%3A%2F%2Fzer0day.ch%3A1337","udp%3A%2F%2Fopen.demonii.com%3A1337","udp%3A%2F%2Ftracker.coppersurfer.tk%3A6969","udp%3A%2F%2Fexodus.desync.com%3A6969"],"infoHash":"d3165e046f0e5c5c1b3ff1b0ca9c3fe6ffe20c8f","infoHashBuffer":{"type":"Buffer","data":[211,22,94,4,111,14,92,92,27,63,241,176,202,156,63,230,255,226,12,143]},"announce":[],"urlList":[]}}